PathFileType   4   (X/Y/Z)
DataRate	CameraRate	NumFrames	NumMarkers	Units	OrigDataRate	OrigDataStartFrame	OrigNumFrames
120.0	120.0	4	37	mm	120.0	110	125
Frame#	Time	midhip	hip_r	hip_l	knee_r	knee_l	ankle_r	ankle_l	midasis	asis_r	asis_l	psis_r	psis_l	epicondLat_r	epicondLat_l	epicondMed_r	epicondMed_l	malleolusLat_r	malleolusLat_l	malleolusMedv_r	malleolusMedv_l	neck	subclavicle_r	subclavicle_l	sternalnotch	xyphoidprocess	thighwand_r	thighwand_l	upperleg1_r	upperleg1_l	upperleg2_r	upperleg2_l	shankwand_r	shankwand_l	lowerleg1_r	lowerleg1_l	toe_r	toe_l
 	 	X1	Y1	Z1	X2	Y2	Z2	X3	Y3	Z3	X4	Y4	Z4	X5	Y5	Z5	X6	Y6	Z6	X7	Y7	Z7	X8	Y8	Z8	X9	Y9	Z9	X10	Y10	Z10	X11	Y11	Z11	X12	Y12	Z12	X13	Y13	Z13	X14	Y14	Z14	X15	Y15	Z15	X16	Y16	Z16	X17	Y17	Z17	X18	Y18	Z18	X19	Y19	Z19	X20	Y20	Z20	X21	Y21	Z21	X22	Y22	Z22	X23	Y23	Z23	X24	Y24	Z24	X25	Y25	Z25	X26	Y26	Z26	X27	Y27	Z27	X28	Y28	Z28	X29	Y29	Z29	X30	Y30	Z30	X31	Y31	Z31	X32	Y32	Z32	X33	Y33	Z33	X34	Y34	Z34	X35	Y35	Z35	X36	Y36	Z36	X37	Y37	Z37

	110	1.03333	1019.397	761.779	-242.464	991.120	767.129	-166.153	1008.725	765.176	-320.771	934.224	409.854	-189.368	1182.500	420.511	-313.134	810.164	72.650	-200.073	1298.932	75.440	-309.823	1126.718	838.771	-229.942	1112.621	840.334	-106.139	1140.814	837.208	-353.745	883.406	910.861	-229.093	887.041	905.686	-282.792	929.617	405.958	-118.123	1191.182	423.317	-384.050	937.487	430.161	-266.245	1168.677	399.621	-228.995	806.896	72.634	-161.712	1279.634	68.604	-343.603	811.967	82.905	-236.529	1302.983	93.487	-270.675	924.203	1332.361	-243.247	1052.196	1264.991	-208.954	1049.579	1268.567	-291.889	1033.914	1262.048	-262.484	1085.602	1188.308	-265.883	1108.465	535.443	-89.211	1257.647	657.256	-298.545	1080.264	565.309	-112.679	1211.446	648.685	-313.943	1042.122	499.910	-128.556	1227.914	576.659	-310.288	940.498	178.096	-182.139	1232.862	167.629	-410.914	896.430	199.313	-185.451	1240.728	182.872	-364.865	914.573	42.576	-197.886	1394.149	95.225	-343.268
	111	1.04167	1028.485	760.805	-243.324	1000.093	766.391	-166.991	1017.916	764.147	-321.580	940.616	409.387	-189.049	1189.762	419.115	-312.479	811.100	74.116	-199.699	1315.291	76.652	-311.057	1135.915	837.674	-230.705	1121.654	839.469	-107.012	1150.176	835.879	-354.398	892.712	910.297	-230.308	896.481	904.860	-283.981	935.277	405.876	-117.835	1198.898	421.796	-383.342	944.890	428.686	-265.368	1182.687	397.398	-224.517	807.870	74.145	-161.334	1296.268	69.539	-344.936	813.037	84.118	-236.119	1318.232	94.592	-271.696	933.496	1331.007	-243.694	1061.734	1263.921	-209.595	1058.782	1267.689	-292.043	1043.267	1260.965	-262.927	1095.122	1187.470	-266.632	1114.826	534.226	-87.796	1266.240	655.009	-297.677	1086.988	564.693	-111.621	1217.382	646.482	-313.836	1048.580	498.912	-127.429	1236.260	574.485	-308.955	942.945	177.721	-181.910	1247.050	168.006	-411.692	899.083	199.310	-185.235	1254.206	182.849	-365.755	914.942	42.702	-197.604	1410.590	98.158	-344.225
	112	1.05000	1037.727	759.810	-244.201	1009.194	765.627	-167.859	1027.238	763.181	-322.420	947.233	408.892	-188.806	1197.048	417.790	-311.968	812.152	75.711	-199.293	1330.356	77.670	-312.235	1145.255	836.564	-231.451	1130.822	838.520	-107.817	1159.688	834.608	-355.085	902.118	909.794	-231.435	906.024	904.100	-285.117	941.171	405.765	-117.632	1206.603	420.345	-382.781	952.677	426.239	-263.999	1189.087	395.611	-223.661	808.957	75.798	-160.926	1311.633	70.358	-346.238	814.318	85.883	-235.741	1332.600	95.739	-272.900	942.241	1329.930	-244.122	1071.055	1262.656	-210.171	1068.417	1266.918	-292.546	1052.674	1259.988	-263.423	1104.843	1186.630	-267.514	1121.360	533.067	-86.463	1275.018	652.881	-296.953	1093.501	564.131	-110.604	1227.006	644.233	-311.931	1055.372	497.865	-126.146	1244.453	572.616	-307.854	945.478	177.356	-181.680	1260.440	168.357	-412.514	902.592	199.575	-184.931	1267.122	183.060	-366.948	915.350	42.856	-197.283	1425.793	100.650	-344.784
	113	1.05833	1047.102	758.850	-245.035	1018.433	764.855	-168.741	1036.700	762.292	-323.273	954.063	408.388	-188.665	1204.425	416.572	-311.587	813.328	77.431	-198.858	1344.076	78.390	-313.285	1154.746	835.454	-232.165	1140.132	837.504	-108.532	1169.361	833.403	-355.797	911.631	909.357	-232.463	915.674	903.437	-286.183	947.305	405.633	-117.538	1214.362	419.001	-382.351	959.488	425.654	-263.441	1193.866	394.164	-223.850	810.162	77.595	-160.489	1325.669	70.960	-347.435	815.756	87.643	-235.374	1346.393	96.556	-274.161	951.224	1329.024	-244.949	1080.201	1261.531	-210.600	1078.252	1266.163	-293.303	1062.118	1259.113	-263.977	1114.540	1185.791	-268.142	1128.108	531.970	-85.247	1283.984	650.850	-296.372	1100.489	563.233	-109.930	1235.990	642.316	-311.328	1061.795	497.256	-125.286	1252.220	570.559	-307.451	948.116	177.004	-181.444	1273.013	168.602	-413.330	906.060	199.999	-184.736	1279.523	183.244	-367.859	915.802	43.030	-196.951	1439.711	102.591	-344.920
